<svg width="270" height="133" viewBox="0 0 270 133" fill="none" xmlns="http://www.w3.org/2000/svg">
<path d="M52.3269 69.4463C47.1213 65.256 7.26921 66.6635 4.44519 65.3152C2.18328 63.6173 7.33476 36.8682 9.72506 33.045C10.5695 31.6848 11.4675 31.5256 13.4683 32.3164C16.6344 33.773 58.4998 34.3543 58.4998 34.3543C59.0099 35.2389 60.8013 32.5262 61.0516 33.577C61.8978 36.0142 129.709 37.6257 135.499 37.8978C139.01 38.0597 136.141 39.494 140.31 39.1278C149.159 38.4544 168.206 41.0689 174.936 40.0705C180.317 39.2179 181.467 39.2634 186.537 40.6162C191.716 41.874 219.521 42.57 222.798 40.9188C223.595 40.463 224.177 40.672 224.151 41.2892C224.141 41.4123 243.679 43.2589 243.747 43.7181C243.866 44.3256 244.439 44.6577 245.023 44.2891C246.075 43.7287 267.026 42.9579 267.263 44.73C268.034 49.8031 264.054 70.8622 261.369 75.86C258.616 81.2037 245.332 74.0302 234.239 76.5977L183.348 73.292L172.33 74.5857C171.174 72.703 166.14 76.8838 163.411 73.4583C162.258 72.0917 153.604 71.2732 151.615 72.5058C149.897 73.4285 105.726 67.6377 100.987 70.9121C93.059 67.3004 59.9836 69.2815 52.3254 69.4668L52.3269 69.4463Z" fill="#770B00"/>
<path d="M75.1462 92.7762C71.195 88.6187 40.3583 90.1497 38.2134 88.8114C36.4873 87.1126 41.0195 60.3787 42.9575 56.542C43.6381 55.1694 44.3297 55.0152 45.8781 55.7925C48.2815 57.2535 80.6604 57.6757 80.6604 57.6757C81.0271 58.5495 82.4891 55.8326 82.6575 56.8772C83.2563 59.3163 135.671 60.7147 140.123 60.9683C142.831 61.1315 140.6 62.5727 143.822 62.1969C150.674 61.4966 165.358 64.0499 170.566 63.0191C174.752 62.1589 175.634 62.2048 179.511 63.5294C183.477 64.7576 204.982 65.3906 207.539 63.7263C208.171 63.2581 208.608 63.4768 208.582 64.094C208.573 64.2171 223.645 65.9948 223.691 66.473C223.769 67.0774 224.219 67.4002 224.658 67.0413C225.483 66.4844 241.7 65.6451 241.835 67.4095C242.317 72.4814 238.832 93.5366 236.64 98.5511C234.401 103.913 224.288 96.7724 215.645 99.3599L176.364 96.2083L167.815 97.5441C166.968 95.664 162.983 99.8621 160.934 96.4467C160.068 95.0812 153.389 94.3086 151.834 95.5326C150.486 96.4627 116.441 90.8173 112.711 94.1059C106.655 90.5324 81.0316 92.6015 75.1226 92.8157L75.1462 92.7762Z" fill="#770B00"/>
<path d="M84.2522 48.0415C80.5406 43.9847 52.2547 46.3892 50.2486 45.1234C48.6423 43.4749 52.2352 16.6287 53.91 12.7309C54.5101 11.3316 55.1418 11.1523 56.5689 11.8998C58.813 13.2868 88.5417 12.7867 88.5417 12.7867C88.9084 13.6605 90.1671 10.9076 90.3575 11.9332C90.9579 14.3518 139.118 14.2526 143.209 14.3757C145.696 14.4603 143.666 15.9581 146.628 15.48C152.897 14.5913 166.438 16.7281 171.205 15.5402C175.029 14.5494 175.832 14.5687 179.428 15.7895C183.113 16.9139 202.852 16.9184 205.168 15.1739C205.741 14.6806 206.157 14.8978 206.131 15.515C206.122 15.6381 219.991 16.9741 220.037 17.4523C220.115 18.0567 220.544 18.378 220.945 17.9749C221.69 17.3913 236.562 16.079 236.736 17.867C237.282 22.923 234.533 44.0545 232.624 49.1316C230.67 54.5561 221.234 47.7144 213.376 50.5469L177.245 48.5206L169.44 50.0983C168.612 48.2403 165.052 52.553 163.1 49.2068C162.274 47.8649 156.137 47.2778 154.722 48.5536C153.495 49.5135 122.138 44.8346 118.771 48.2332C113.134 44.8358 89.6599 47.645 84.2332 48.0195L84.2522 48.0415Z" fill="#770B00"/>
<path d="M52.7312 114.858C48.262 111.012 16.0526 114.895 13.6889 113.726C11.7455 112.176 14.4037 85.1564 16.1462 81.1811C16.7479 79.7613 17.4646 79.5471 19.1453 80.2106C21.7895 81.4834 55.7567 79.4252 55.7567 79.4252C56.229 80.2657 57.5128 77.4528 57.7852 78.4846C58.5935 80.8776 113.663 78.2252 118.367 78.1469C121.214 78.0936 118.991 79.7006 122.334 79.0862C129.473 77.871 145.067 79.2755 150.45 77.8451C154.763 76.6643 155.693 76.6313 159.88 77.6697C164.137 78.5896 186.735 77.5716 189.286 75.7006C189.902 75.1898 190.403 75.3722 190.398 75.9909C190.389 76.114 206.332 76.7193 206.419 77.2005C206.559 77.8095 207.032 78.0929 207.474 77.6929C208.304 77.0745 225.233 74.9888 225.513 76.7435C226.411 81.7643 224.415 103.014 222.52 108.196C220.6 113.705 209.416 107.372 200.578 110.625L159.151 110.511L150.307 112.484C149.27 110.673 145.407 115.169 143.014 111.934C141.999 110.64 134.931 110.374 133.409 111.704C132.074 112.738 95.935 109.721 92.2869 113.284C85.6597 110.183 58.9611 114.214 52.7706 114.882L52.7312 114.858Z" fill="#770B00"/>
</svg>
